<svg width="200" height="867" viewBox="0 0 200 867" fill="none" xmlns="http://www.w3.org/2000/svg">
<path d="M100.529 63.5333L-8.4615e-07 149.309L21.164 167.559L100.529 100.033L178.836 167.559L200 149.309L100.529 63.5333Z" fill="black" fill-opacity="0.2"/>
<path d="M100.529 203.148L-8.4615e-07 289.835L21.164 307.173L100.529 239.648L178.836 307.173L200 289.835L100.529 203.148Z" fill="black" fill-opacity="0.2"/>
<path d="M100.529 342.753L-8.4615e-07 429.44L21.164 447.69L100.529 379.253L178.836 447.69L200 429.44L100.529 342.753Z" fill="black" fill-opacity="0.2"/>
<path d="M100.529 483.283L-8.4615e-07 569.059L21.164 587.309L100.529 518.871L178.836 587.309L200 569.059L100.529 483.283Z" fill="black" fill-opacity="0.2"/>
<path d="M100.529 622.9L-8.4615e-07 708.675L21.164 726.925L100.529 658.487L178.836 726.925L200 708.675L100.529 622.9Z" fill="black" fill-opacity="0.2"/>
<path d="M100.529 762.507L-8.4615e-07 848.282L21.164 866.532L100.529 799.007L178.836 866.532L200 848.282L100.529 762.507Z" fill="black" fill-opacity="0.2"/>
<path d="M100.529 0.000317431L-8.4615e-07 84.5506L21.164 102.54L100.529 35.9791L178.836 102.54L200 84.5506L100.529 0.000317431Z" fill="black" fill-opacity="0.2"/>
<path d="M100.529 137.622L-8.4615e-07 223.071L21.164 240.161L100.529 173.6L178.836 240.161L200 223.071L100.529 137.622Z" fill="black" fill-opacity="0.2"/>
<path d="M100.529 275.233L-8.4615e-07 360.682L21.164 378.672L100.529 311.212L178.836 378.672L200 360.682L100.529 275.233Z" fill="black" fill-opacity="0.2"/>
<path d="M100.529 413.757L-8.4615e-07 498.307L21.164 516.297L100.529 448.837L178.836 516.297L200 498.307L100.529 413.757Z" fill="black" fill-opacity="0.2"/>
<path d="M100.529 551.378L-8.4615e-07 635.929L21.164 653.918L100.529 586.458L178.836 653.918L200 635.929L100.529 551.378Z" fill="black" fill-opacity="0.2"/>
<path d="M100.529 688.993L-8.4615e-07 773.543L21.164 791.532L100.529 724.971L178.836 791.532L200 773.543L100.529 688.993Z" fill="black" fill-opacity="0.2"/>
</svg>
