<svg width="200" height="867" viewBox="0 0 200 867" fill="none" xmlns="http://www.w3.org/2000/svg">
<path d="M99.4709 802.999L200 717.224L178.836 698.974L99.4709 766.499L21.164 698.974L0 717.224L99.4709 802.999Z" fill="black" fill-opacity="0.2"/>
<path d="M99.4709 663.385L200 576.697L178.836 559.359L99.4709 626.884L21.164 559.359L0 576.697L99.4709 663.385Z" fill="black" fill-opacity="0.2"/>
<path d="M99.4709 523.78L200 437.092L178.836 418.842L99.4709 487.279L21.164 418.842L0 437.092L99.4709 523.78Z" fill="black" fill-opacity="0.2"/>
<path d="M99.4709 383.249L200 297.474L178.836 279.224L99.4709 347.661L21.164 279.224L0 297.474L99.4709 383.249Z" fill="black" fill-opacity="0.2"/>
<path d="M99.4709 243.633L200 157.857L178.836 139.607L99.4709 208.045L21.164 139.607L0 157.857L99.4709 243.633Z" fill="black" fill-opacity="0.2"/>
<path d="M99.4709 104.025L200 18.25L178.836 0L99.4709 67.5252L21.164 0L0 18.25L99.4709 104.025Z" fill="black" fill-opacity="0.2"/>
<path d="M99.4709 866.532L200 781.982L178.836 763.992L99.4709 830.553L21.164 763.992L0 781.982L99.4709 866.532Z" fill="black" fill-opacity="0.2"/>
<path d="M99.4709 728.911L200 643.461L178.836 626.371L99.4709 692.932L21.164 626.371L0 643.461L99.4709 728.911Z" fill="black" fill-opacity="0.2"/>
<path d="M99.4709 591.299L200 505.85L178.836 487.86L99.4709 555.321L21.164 487.86L0 505.85L99.4709 591.299Z" fill="black" fill-opacity="0.2"/>
<path d="M99.4709 452.775L200 368.225L178.836 350.235L99.4709 417.696L21.164 350.235L0 368.225L99.4709 452.775Z" fill="black" fill-opacity="0.2"/>
<path d="M99.4709 315.154L200 230.604L178.836 212.614L99.4709 280.075L21.164 212.614L0 230.604L99.4709 315.154Z" fill="black" fill-opacity="0.2"/>
<path d="M99.4709 177.54L200 92.9894L178.836 75L99.4709 141.561L21.164 75L0 92.9894L99.4709 177.54Z" fill="black" fill-opacity="0.2"/>
</svg>
