<svg width="715" height="715" viewBox="0 0 715 715" fill="none" xmlns="http://www.w3.org/2000/svg">
<path d="M492.731 357.286L695.876 154.141C720.805 129.212 720.805 88.7938 695.876 63.8446L650.728 18.6966C625.799 -6.23221 585.381 -6.23221 560.432 18.6966L357.286 221.842L154.141 18.6966C129.212 -6.23221 88.7938 -6.23221 63.8447 18.6966L18.6966 63.8446C-6.23221 88.7735 -6.23221 129.192 18.6966 154.141L221.842 357.286L18.6966 560.432C-6.23221 585.361 -6.23221 625.779 18.6966 650.728L63.8447 695.876C88.7735 720.805 129.212 720.805 154.141 695.876L357.286 492.731L560.432 695.876C585.361 720.805 625.799 720.805 650.728 695.876L695.876 650.728C720.805 625.799 720.805 585.381 695.876 560.432L492.731 357.286Z" fill="white"/>
</svg>
