<svg xmlns="http://www.w3.org/2000/svg" fill="none" viewBox="23.01 294.07 2082.93 989.48">
<path d="M2105.38 602.478C2057.61 647.047 1853.73 997.878 1089.37 801.009C325.016 604.139 114.968 753.973 23.5657 1083.54" stroke="#0AD60A" stroke-width="1.11256" stroke-miterlimit="10"/>
<path d="M2104.97 614.729C2059.48 657.2 1850.2 990.545 1092.2 789.054C334.193 587.562 118.598 780.089 31.4759 1094.02" stroke="url(#paint0_linear_355_199)" stroke-width="1.11256" stroke-miterlimit="10"/>
<path d="M2104.53 626.967C2061.31 667.314 1846.7 983.062 1094.94 776.573C343.187 570.083 122.052 805.22 39.289 1103.46" stroke="url(#paint1_linear_355_199)" stroke-width="1.11256" stroke-miterlimit="10"/>
<path d="M2104.08 639.219C2063.14 677.443 1843.2 975.578 1097.69 764.106C352.173 552.634 125.508 830.365 47.1026 1112.9" stroke="url(#paint2_linear_355_199)" stroke-width="1.11256" stroke-miterlimit="10"/>
<path d="M2103.64 651.475C2064.98 687.575 1839.7 968.113 1100.43 751.658C361.169 535.202 128.964 855.528 54.917 1122.37" stroke="#058A07" stroke-width="1.11256" stroke-miterlimit="10"/>
<path d="M2103.2 663.711C2066.81 697.688 1836.2 960.615 1103.2 739.174C370.191 517.732 132.436 880.656 62.7461 1131.8" stroke="#0AD60A" stroke-width="1.11256" stroke-miterlimit="10"/>
<path d="M2102.76 675.965C2068.64 707.818 1832.7 953.135 1105.94 726.709C379.187 500.284 135.892 905.804 70.5608 1141.25" stroke="#058A07" stroke-width="1.11256" stroke-miterlimit="10"/>
<path d="M2102.31 688.219C2070.47 717.949 1829.19 945.668 1108.69 714.258C388.182 482.849 139.346 930.965 78.3727 1150.71" stroke="#058A07" stroke-width="1.11256" stroke-miterlimit="10"/>
<path d="M2101.87 700.475C2072.3 728.081 1825.7 938.188 1111.43 701.796C397.168 465.405 142.813 956.112 86.1778 1160.17" stroke="#0AD60A" stroke-width="1.11256" stroke-miterlimit="10"/>
<path d="M2101.42 712.714C2074.13 738.198 1822.19 930.706 1114.19 689.315C406.179 447.924 146.274 981.243 93.997 1169.6" stroke="#058A07" stroke-width="1.11256" stroke-miterlimit="10"/>
<path d="M2100.98 724.966C2075.96 748.325 1818.69 923.224 1116.93 676.863C415.177 430.501 149.732 1006.4 101.813 1179.07" stroke="#0AD60A" stroke-width="1.11256" stroke-miterlimit="10"/>
<path d="M2100.55 737.22C2077.81 758.455 1815.2 915.755 1119.69 664.398C424.17 413.04 153.195 1031.55 109.634 1188.51" stroke="url(#paint3_linear_355_199)" stroke-width="1.11256" stroke-miterlimit="10"/>
<path d="M2100.1 749.46C2079.63 768.572 1811.7 908.261 1122.43 651.919C433.165 395.578 156.649 1056.68 117.447 1197.95" stroke="url(#paint4_linear_355_199)" stroke-width="1.11256" stroke-miterlimit="10"/>
<path d="M2099.66 761.715C2081.47 778.703 1808.2 900.795 1125.19 639.468C442.181 378.141 160.115 1081.83 125.271 1207.41" stroke="#0AD60A" stroke-width="1.11256" stroke-miterlimit="10"/>
<path d="M2099.21 773.968C2083.29 788.833 1804.69 893.313 1127.93 627.002C451.174 360.691 163.577 1106.97 133.082 1216.86" stroke="#058A07" stroke-width="1.11256" stroke-miterlimit="10"/>
<path d="M2098.77 786.211C2085.12 798.952 1801.19 885.834 1130.68 614.527C460.156 343.219 167.031 1132.11 140.893 1226.29" stroke="#0AD60A" stroke-width="1.11256" stroke-miterlimit="10"/>
<path d="M2098.32 798.462C2086.95 809.08 1797.69 878.351 1133.42 602.059C469.151 325.768 170.497 1157.27 148.716 1235.75" stroke="#058A07" stroke-width="1.11256" stroke-miterlimit="10"/>
<path d="M2097.89 810.713C2088.8 819.207 1794.2 870.867 1136.19 589.604C478.182 308.341 173.955 1182.41 156.533 1245.2" stroke="#058A07" stroke-width="1.11256" stroke-miterlimit="10"/>
<path d="M2097.45 822.967C2090.62 829.338 1790.7 863.398 1138.93 577.139C487.165 290.879 177.419 1207.56 164.354 1254.64" stroke="#058A07" stroke-width="1.11256" stroke-miterlimit="10"/>
<path d="M2097 835.21C2092.45 839.457 1787.2 855.907 1141.68 564.664C496.157 273.42 180.872 1232.71 172.166 1264.1" stroke="#058A07" stroke-width="1.11256" stroke-miterlimit="10"/>
<path d="M2096.56 847.459C2094.28 849.583 1783.69 848.435 1144.42 552.208C505.152 255.981 184.336 1257.85 179.977 1273.54" stroke="url(#paint5_linear_355_199)" stroke-width="1.11256" stroke-miterlimit="10"/>
<path d="M2096.11 859.714C2096.11 859.714 1780.19 840.956 1147.18 539.743C514.169 238.53 187.802 1283 187.802 1283" stroke="#0AD60A" stroke-width="1.11256" stroke-miterlimit="10"/>
<path d="M2091.18 837.645C2090.15 839.683 1769.92 857.927 1147.72 558.7C525.516 259.473 200.692 1228.68 185.066 1237.9" stroke="#058A07" stroke-width="1.11256" stroke-miterlimit="10"/>
<path d="M2086.23 815.556C2084.17 819.632 1759.64 874.864 1148.25 577.622C536.868 280.38 213.569 1174.35 182.326 1192.79" stroke="#058A07" stroke-width="1.11256" stroke-miterlimit="10"/>
<path d="M2081.3 793.482C2078.2 799.596 1749.36 891.817 1148.8 596.572C548.246 301.327 226.462 1120.06 179.589 1147.68" stroke="#058A07" stroke-width="1.11256" stroke-miterlimit="10"/>
<path d="M2076.36 771.414C2072.25 779.564 1739.08 908.79 1149.34 615.515C559.6 322.24 239.361 1065.74 176.862 1102.58" stroke="#058A07" stroke-width="1.11256" stroke-miterlimit="10"/>
<path d="M2071.42 749.338C2066.28 759.526 1728.8 925.741 1149.88 634.465C570.956 343.188 252.25 1011.42 174.124 1057.49" stroke="#058A07" stroke-width="1.11256" stroke-miterlimit="10"/>
<path d="M2066.47 727.268C2060.3 739.494 1718.52 942.711 1150.42 653.405C582.31 364.099 265.129 957.104 171.386 1012.39" stroke="#058A07" stroke-width="1.11256" stroke-miterlimit="10"/>
<path d="M2061.53 705.198C2054.33 719.462 1708.24 959.668 1150.95 672.346C593.664 385.025 278.018 902.798 168.647 967.286" stroke="#058A07" stroke-width="1.11256" stroke-miterlimit="10"/>
<path d="M2056.59 683.124C2048.36 699.426 1697.97 976.635 1151.49 691.298C605.02 405.961 290.908 848.487 165.921 922.193" stroke="#058A07" stroke-width="1.11256" stroke-miterlimit="10"/>
<path d="M2051.65 661.037C2042.38 679.377 1687.68 993.576 1152.03 710.237C616.375 426.898 303.796 794.164 163.182 877.088" stroke="#058A07" stroke-width="1.11256" stroke-miterlimit="10"/>
<path d="M2046.71 638.965C2036.41 659.343 1677.4 1010.53 1152.58 729.174C627.748 447.818 316.684 739.841 160.453 831.983" stroke="#058A07" stroke-width="1.11256" stroke-miterlimit="10"/>
<path d="M2041.77 616.891C2030.44 639.307 1667.13 1027.5 1153.11 748.126C639.104 468.754 329.575 685.545 157.716 786.892" stroke="#058A07" stroke-width="1.11256" stroke-miterlimit="10"/>
<path d="M2036.82 594.823C2024.47 619.275 1656.85 1044.45 1153.64 767.07C650.439 489.684 342.454 631.227 154.967 741.778" stroke="#058A07" stroke-width="1.11256" stroke-miterlimit="10"/>
<path d="M2031.89 572.749C2018.51 599.239 1646.57 1061.42 1154.2 786.019C661.819 510.616 355.357 576.914 152.244 696.685" stroke="#058A07" stroke-width="1.11256" stroke-miterlimit="10"/>
<path d="M2026.95 550.672C2012.54 579.199 1636.29 1078.37 1154.73 804.953C673.172 531.535 368.235 522.588 149.505 651.576" stroke="#058A07" stroke-width="1.11256" stroke-miterlimit="10"/>
<path d="M2022.01 528.604C2006.57 559.17 1626.01 1095.33 1155.27 823.911C684.528 552.492 381.125 468.298 146.767 606.492" stroke="#058A07" stroke-width="1.11256" stroke-miterlimit="10"/>
<path d="M2017.07 506.532C2000.6 539.136 1615.73 1112.3 1155.81 842.849C695.899 573.398 394.021 413.974 144.037 561.386" stroke="#058A07" stroke-width="1.11256" stroke-miterlimit="10"/>
<path d="M2012.13 484.442C1994.63 519.084 1605.46 1129.24 1156.36 861.785C707.248 594.334 406.913 359.648 141.302 516.28" stroke="#058A07" stroke-width="1.11256" stroke-miterlimit="10"/>
<path d="M2007.18 462.374C1988.64 499.054 1595.17 1146.21 1156.88 880.728C718.589 615.248 419.779 305.331 138.561 471.178" stroke="#058A07" stroke-width="1.11256" stroke-miterlimit="10"/>
<path d="M2002.24 440.302C1982.69 479.018 1584.89 1163.16 1157.43 899.68C729.967 636.196 432.681 251.035 135.836 426.087" stroke="#058A07" stroke-width="1.11256" stroke-miterlimit="10"/>
<path d="M1997.31 418.228C1976.72 458.981 1574.62 1180.12 1157.97 918.617C741.324 657.118 445.572 196.709 133.1 380.981" stroke="#058A07" stroke-width="1.11256" stroke-miterlimit="10"/>
<path d="M1992.36 396.158C1970.75 438.95 1564.34 1197.09 1158.51 937.573C752.678 678.059 458.46 142.404 130.36 335.881" stroke="#0AD60A" stroke-width="1.11256" stroke-miterlimit="10"/>
<defs>
<linearGradient id="paint0_linear_355_199" x1="2053.7" y1="1067.64" x2="59.8017" y2="840.38" gradientUnits="userSpaceOnUse">
<stop stop-color="#0AD60A"/>
<stop offset="1" stop-color="#058A07"/>
</linearGradient>
<linearGradient id="paint1_linear_355_199" x1="2059.78" y1="1059.66" x2="65.044" y2="851.822" gradientUnits="userSpaceOnUse">
<stop stop-color="#0AD60A"/>
<stop offset="1" stop-color="#058A07"/>
</linearGradient>
<linearGradient id="paint2_linear_355_199" x1="2065.47" y1="1051.5" x2="70.1304" y2="863.158" gradientUnits="userSpaceOnUse">
<stop stop-color="#058A07"/>
<stop offset="1" stop-color="#0AD60A"/>
</linearGradient>
<linearGradient id="paint3_linear_355_199" x1="2097.61" y1="931.355" x2="113.945" y2="898.457" gradientUnits="userSpaceOnUse">
<stop stop-color="#0AD60A" stop-opacity="0.5"/>
<stop offset="1" stop-color="#058A07"/>
</linearGradient>
<linearGradient id="paint4_linear_355_199" x1="2099.35" y1="898.514" x2="119.195" y2="884.945" gradientUnits="userSpaceOnUse">
<stop stop-color="#0AD60A" stop-opacity="0"/>
<stop offset="1" stop-color="#058A07"/>
</linearGradient>
<linearGradient id="paint5_linear_355_199" x1="2082.68" y1="647.469" x2="144.925" y2="784.165" gradientUnits="userSpaceOnUse">
<stop stop-color="#0AD60A"/>
<stop offset="1" stop-color="#058A07"/>
</linearGradient>
</defs>
</svg>