<svg width="715" height="626" viewBox="0 0 715 626" fill="none" xmlns="http://www.w3.org/2000/svg">
<path d="M25.5205 114.842H689.052C703.148 114.842 714.573 103.417 714.573 89.3216V25.5205C714.573 11.4252 703.148 0 689.052 0H25.5205C11.4252 0 0 11.4252 0 25.5205V89.3216C0 103.417 11.4252 114.842 25.5205 114.842ZM25.5205 370.047H689.052C703.148 370.047 714.573 358.622 714.573 344.526V280.725C714.573 266.63 703.148 255.205 689.052 255.205H25.5205C11.4252 255.205 0 266.63 0 280.725V344.526C0 358.622 11.4252 370.047 25.5205 370.047ZM25.5205 625.251H689.052C703.148 625.251 714.573 613.826 714.573 599.731V535.93C714.573 521.834 703.148 510.409 689.052 510.409H25.5205C11.4252 510.409 0 521.834 0 535.93V599.731C0 613.826 11.4252 625.251 25.5205 625.251Z" fill="white"/>
</svg>
