<svg width="626" height="360" viewBox="0 0 626 360" fill="none" xmlns="http://www.w3.org/2000/svg">
<rect width="626" height="360" fill="#EFF3FD"/>
<path d="M339.833 145.5H286.167C281.932 145.5 278.5 148.932 278.5 153.167V206.833C278.5 211.068 281.932 214.5 286.167 214.5H339.833C344.068 214.5 347.5 211.068 347.5 206.833V153.167C347.5 148.932 344.068 145.5 339.833 145.5Z" stroke="#212121" stroke-width="3" stroke-linecap="round" stroke-linejoin="round"/>
<path d="M299.584 172.333C302.76 172.333 305.334 169.759 305.334 166.583C305.334 163.407 302.76 160.833 299.584 160.833C296.408 160.833 293.834 163.407 293.834 166.583C293.834 169.759 296.408 172.333 299.584 172.333Z" stroke="#212121" stroke-width="3" stroke-linecap="round" stroke-linejoin="round"/>
<path d="M347.499 191.5L328.333 172.333L286.166 214.5" stroke="#212121" stroke-width="3" stroke-linecap="round" stroke-linejoin="round"/>
</svg>
