<svg width="133" height="133" viewBox="0 0 133 133" fill="none" xmlns="http://www.w3.org/2000/svg">
<path d="M63.1776 3.3524C64.9814 1.80329 67.646 1.80329 69.4498 3.35239L77.4403 10.2148C78.8417 11.4184 80.7318 11.8842 82.5321 11.4698L92.7964 9.10683C95.1135 8.57342 97.4729 9.81172 98.3501 12.0216L102.236 21.8114C102.918 23.5284 104.375 24.8192 106.162 25.2889L116.348 27.9667C118.648 28.5711 120.162 30.7641 119.911 33.1285L118.803 43.6029C118.608 45.44 119.299 47.2601 120.662 48.5063L128.438 55.6114C130.193 57.2152 130.514 59.8604 129.194 61.8377L123.345 70.5972C122.319 72.1335 122.084 74.0659 122.713 75.8031L126.296 85.7078C127.104 87.9437 126.16 90.4351 124.071 91.5723L114.822 96.6102C113.199 97.4938 112.093 99.0958 111.843 100.926L110.412 111.361C110.089 113.717 108.095 115.484 105.717 115.521L95.1858 115.683C93.3387 115.711 91.615 116.616 90.5423 118.12L84.4263 126.695C83.0456 128.631 80.4585 129.268 78.3364 128.196L68.9358 123.445C67.287 122.612 65.3404 122.612 63.6916 123.445L54.291 128.196C52.1689 129.268 49.5818 128.631 48.2011 126.695L42.0851 118.12C41.0124 116.616 39.2887 115.711 37.4416 115.683L26.91 115.521C24.5326 115.484 22.5381 113.717 22.2153 111.361L20.7849 100.926C20.534 99.0958 19.4282 97.4938 17.8059 96.6102L8.55592 91.5723C6.46786 90.4351 5.52298 87.9437 6.33179 85.7078L9.91477 75.8031C10.5432 74.0659 10.3085 72.1335 9.28266 70.5972L3.43344 61.8378C2.11306 59.8604 2.43424 57.2152 4.18947 55.6114L11.965 48.5063C13.3287 47.2601 14.019 45.44 13.8246 43.6029L12.7161 33.1285C12.4658 30.7641 13.9795 28.5711 16.279 27.9667L26.4658 25.2889C28.2525 24.8192 29.7096 23.5284 30.3911 21.8114L34.2773 12.0216C35.1545 9.81172 37.5139 8.57342 39.831 9.10683L50.0953 11.4698C51.8956 11.8842 53.7857 11.4184 55.1871 10.2148L63.1776 3.3524Z" fill="url(#paint0_linear_190_15076)" stroke="#665000"/>
<circle cx="65.8836" cy="65.8826" r="46.9363" fill="#785E03"/>
<mask id="mask0_190_15076" style="mask-type:alpha" maskUnits="userSpaceOnUse" x="24" y="26" width="89" height="89">
<circle cx="68.4519" cy="70.5642" r="44.2566" fill="#C28B37"/>
</mask>
<g mask="url(#mask0_190_15076)">
<circle cx="65.8816" cy="65.8826" r="46.9363" fill="#8A6B1B"/>
</g>
<circle cx="67.1748" cy="65.4521" r="37.8935" fill="#B3881C"/>
<path d="M69.3944 46.5528L68.5 44.7639L67.6056 46.5528L61.3449 59.0741L48.876 60.6327L46.9832 60.8693L48.2545 62.2915L56.8816 71.9421L54.5142 85.832L54.1828 87.7766L55.9472 86.8944L68.5 80.618L81.0528 86.8944L82.814 87.775L82.486 85.8334L80.1394 71.9421L88.7463 62.2906L90.0141 60.869L88.124 60.6327L75.6551 59.0741L69.3944 46.5528Z" fill="url(#paint1_linear_190_15076)" stroke="#AE8620" stroke-width="2"/>
<defs>
<linearGradient id="paint0_linear_190_15076" x1="66.3137" y1="0" x2="66.3137" y2="132.627" gradientUnits="userSpaceOnUse">
<stop stop-color="#FFE175"/>
<stop offset="1" stop-color="#FFD12E"/>
</linearGradient>
<linearGradient id="paint1_linear_190_15076" x1="68.5" y1="47" x2="68.5" y2="86" gradientUnits="userSpaceOnUse">
<stop stop-color="white"/>
<stop offset="1" stop-color="#FFE86D"/>
</linearGradient>
</defs>
</svg>
