<svg width="200" height="90" viewBox="0 0 200 90" fill="none" xmlns="http://www.w3.org/2000/svg">
<g filter="url(#filter0_i_207_228)">
<rect width="200" height="90" rx="45" fill="#1A1919"/>
</g>
<circle cx="49" cy="45" r="35" fill="white"/>
<path d="M58.8258 62.4344H28.5155C27.682 62.4344 27 63.1164 27 63.9499V66.9809C27 67.8145 27.682 68.4965 28.5155 68.4965H58.8258C59.6593 68.4965 60.3413 67.8145 60.3413 66.9809V63.9499C60.3413 63.1164 59.6593 62.4344 58.8258 62.4344ZM73.7157 30.1634L66.0434 22.4911C65.4562 21.9039 64.49 21.9039 63.9028 22.4911L62.8324 23.5615C62.2452 24.1487 62.2452 25.1149 62.8324 25.7021L66.4034 29.2731V35.1551C66.4034 37.8168 68.383 40.0143 70.9499 40.3837V55.6146C70.9499 56.8649 69.9269 57.8879 68.6766 57.8879C67.4263 57.8879 66.4034 56.8649 66.4034 55.6146V52.5836C66.4034 47.9802 62.6714 44.2482 58.068 44.2482H57.3103V26.0621C57.3103 22.7185 54.5918 20 51.2482 20H36.0931C32.7495 20 30.031 22.7185 30.031 26.0621V59.4034H57.3103V48.7948H58.068C60.1613 48.7948 61.8568 50.4903 61.8568 52.5836V55.2168C61.8568 58.7877 64.4143 62.0366 67.9662 62.406C72.0392 62.8133 75.4965 59.6118 75.4965 55.6146V34.4542C75.4965 32.844 74.8524 31.3001 73.7157 30.1634ZM51.2482 38.1862H36.0931V26.0621H51.2482V38.1862Z" fill="black"/>
<defs>
<filter id="filter0_i_207_228" x="0" y="0" width="200" height="96" filterUnits="userSpaceOnUse" color-interpolation-filters="sRGB">
<feFlood flood-opacity="0" result="BackgroundImageFix"/>
<feBlend mode="normal" in="SourceGraphic" in2="BackgroundImageFix" result="shape"/>
<feColorMatrix in="SourceAlpha" type="matrix" values="0 0 0 0 0 0 0 0 0 0 0 0 0 0 0 0 0 0 127 0" result="hardAlpha"/>
<feMorphology radius="3" operator="erode" in="SourceAlpha" result="effect1_innerShadow_207_228"/>
<feOffset dy="6"/>
<feGaussianBlur stdDeviation="4"/>
<feComposite in2="hardAlpha" operator="arithmetic" k2="-1" k3="1"/>
<feColorMatrix type="matrix" values="0 0 0 0 0 0 0 0 0 0 0 0 0 0 0 0 0 0 0.1 0"/>
<feBlend mode="normal" in2="shape" result="effect1_innerShadow_207_228"/>
</filter>
</defs>
</svg>
