<svg width="200" height="90" viewBox="0 0 200 90" fill="none" xmlns="http://www.w3.org/2000/svg">
<g filter="url(#filter0_i_207_229)">
<rect width="200" height="90" rx="45" fill="#0AD60A"/>
</g>
<g filter="url(#filter1_d_207_229)">
<circle cx="155" cy="45" r="35" fill="url(#paint0_linear_207_229)"/>
</g>
<path d="M169.667 31.5816C169.332 30.8339 168.375 30.804 167.975 31.5098C166.12 34.7338 162.801 36.7436 159.008 36.7436H154.223C147.883 36.7436 142.739 41.8877 142.739 48.228C142.739 48.6467 142.787 49.0475 142.829 49.4542C146.645 46.7207 152.154 44.3999 159.966 44.3999C160.492 44.3999 160.923 44.8305 160.923 45.3569C160.923 45.8833 160.492 46.3139 159.966 46.3139C144.928 46.3139 138.552 55.5314 137.14 58.9946C136.746 59.9696 137.212 61.0822 138.187 61.4829C139.168 61.8897 140.281 61.4171 140.687 60.4481C140.777 60.2328 141.937 57.583 144.988 55.0289C146.926 57.6548 150.611 60.161 155.45 59.6466C164.84 58.9647 171.45 50.5428 171.45 40.2308C171.45 37.2281 170.804 34.1178 169.667 31.5816Z" fill="#0AD60A"/>
<defs>
<filter id="filter0_i_207_229" x="0" y="0" width="200" height="96" filterUnits="userSpaceOnUse" color-interpolation-filters="sRGB">
<feFlood flood-opacity="0" result="BackgroundImageFix"/>
<feBlend mode="normal" in="SourceGraphic" in2="BackgroundImageFix" result="shape"/>
<feColorMatrix in="SourceAlpha" type="matrix" values="0 0 0 0 0 0 0 0 0 0 0 0 0 0 0 0 0 0 127 0" result="hardAlpha"/>
<feMorphology radius="3" operator="erode" in="SourceAlpha" result="effect1_innerShadow_207_229"/>
<feOffset dy="6"/>
<feGaussianBlur stdDeviation="4"/>
<feComposite in2="hardAlpha" operator="arithmetic" k2="-1" k3="1"/>
<feColorMatrix type="matrix" values="0 0 0 0 0 0 0 0 0 0 0 0 0 0 0 0 0 0 0.1 0"/>
<feBlend mode="normal" in2="shape" result="effect1_innerShadow_207_229"/>
</filter>
<filter id="filter1_d_207_229" x="112" y="5" width="82" height="82" filterUnits="userSpaceOnUse" color-interpolation-filters="sRGB">
<feFlood flood-opacity="0" result="BackgroundImageFix"/>
<feColorMatrix in="SourceAlpha" type="matrix" values="0 0 0 0 0 0 0 0 0 0 0 0 0 0 0 0 0 0 127 0" result="hardAlpha"/>
<feOffset dx="-2" dy="1"/>
<feGaussianBlur stdDeviation="3"/>
<feColorMatrix type="matrix" values="0 0 0 0 0 0 0 0 0 0 0 0 0 0 0 0 0 0 0.25 0"/>
<feBlend mode="normal" in2="BackgroundImageFix" result="effect1_dropShadow_207_229"/>
<feBlend mode="normal" in="SourceGraphic" in2="effect1_dropShadow_207_229" result="shape"/>
</filter>
<linearGradient id="paint0_linear_207_229" x1="155" y1="10" x2="155" y2="80" gradientUnits="userSpaceOnUse">
<stop stop-color="white"/>
<stop offset="1" stop-color="#E8EAEA"/>
</linearGradient>
</defs>
</svg>
